<mxfile host="Electron" agent="Mozilla/5.0 (Windows NT 10.0; Win64; x64) AppleWebKit/537.36 (KHTML, like Gecko) draw.io/24.7.17 Chrome/128.0.6613.36 Electron/32.0.1 Safari/537.36" version="24.7.17">
  <diagram id="C5RBs43oDa-KdzZeNtuy" name="Page-1">
    <mxGraphModel dx="934" dy="601" grid="1" gridSize="10" guides="1" tooltips="1" connect="1" arrows="1" fold="1" page="1" pageScale="1" pageWidth="2000" pageHeight="2200" math="0" shadow="0">
      <root>
        <mxCell id="WIyWlLk6GJQsqaUBKTNV-0" />
        <mxCell id="WIyWlLk6GJQsqaUBKTNV-1" parent="WIyWlLk6GJQsqaUBKTNV-0" />
        <mxCell id="XxRSkG4TPEDueCD8kfSd-1" style="edgeStyle=orthogonalEdgeStyle;rounded=0;orthogonalLoop=1;jettySize=auto;html=1;exitX=0.5;exitY=1;exitDx=0;exitDy=0;entryX=0.5;entryY=0;entryDx=0;entryDy=0;" edge="1" parent="WIyWlLk6GJQsqaUBKTNV-1" source="WIyWlLk6GJQsqaUBKTNV-3" target="XxRSkG4TPEDueCD8kfSd-0">
          <mxGeometry relative="1" as="geometry" />
        </mxCell>
        <mxCell id="WIyWlLk6GJQsqaUBKTNV-3" value="start" style="rounded=1;whiteSpace=wrap;html=1;fontSize=12;glass=0;strokeWidth=1;shadow=0;" parent="WIyWlLk6GJQsqaUBKTNV-1" vertex="1">
          <mxGeometry x="300" y="20" width="120" height="40" as="geometry" />
        </mxCell>
        <mxCell id="WIyWlLk6GJQsqaUBKTNV-11" value="end" style="rounded=1;whiteSpace=wrap;html=1;fontSize=12;glass=0;strokeWidth=1;shadow=0;" parent="WIyWlLk6GJQsqaUBKTNV-1" vertex="1">
          <mxGeometry x="300" y="2090" width="120" height="40" as="geometry" />
        </mxCell>
        <mxCell id="IxoI0bGfIbi6MGj2JMH9-43" style="edgeStyle=orthogonalEdgeStyle;rounded=0;orthogonalLoop=1;jettySize=auto;html=1;exitX=1;exitY=0.5;exitDx=0;exitDy=0;" parent="WIyWlLk6GJQsqaUBKTNV-1" source="IxoI0bGfIbi6MGj2JMH9-37" target="IxoI0bGfIbi6MGj2JMH9-42" edge="1">
          <mxGeometry relative="1" as="geometry" />
        </mxCell>
        <mxCell id="IxoI0bGfIbi6MGj2JMH9-109" value="&lt;b&gt;True&lt;/b&gt;" style="edgeLabel;html=1;align=center;verticalAlign=middle;resizable=0;points=[];" parent="IxoI0bGfIbi6MGj2JMH9-43" vertex="1" connectable="0">
          <mxGeometry x="-0.2194" y="2" relative="1" as="geometry">
            <mxPoint x="1" y="2" as="offset" />
          </mxGeometry>
        </mxCell>
        <mxCell id="IxoI0bGfIbi6MGj2JMH9-130" style="edgeStyle=orthogonalEdgeStyle;rounded=0;orthogonalLoop=1;jettySize=auto;html=1;exitX=0.5;exitY=1;exitDx=0;exitDy=0;" parent="WIyWlLk6GJQsqaUBKTNV-1" source="IxoI0bGfIbi6MGj2JMH9-37" target="IxoI0bGfIbi6MGj2JMH9-47" edge="1">
          <mxGeometry relative="1" as="geometry" />
        </mxCell>
        <mxCell id="IxoI0bGfIbi6MGj2JMH9-131" value="&lt;b&gt;False&lt;/b&gt;" style="edgeLabel;html=1;align=center;verticalAlign=middle;resizable=0;points=[];" parent="IxoI0bGfIbi6MGj2JMH9-130" vertex="1" connectable="0">
          <mxGeometry x="-0.0879" relative="1" as="geometry">
            <mxPoint as="offset" />
          </mxGeometry>
        </mxCell>
        <mxCell id="IxoI0bGfIbi6MGj2JMH9-37" value="&lt;font style=&quot;font-size: 8px;&quot;&gt;[1]&lt;font style=&quot;&quot;&gt;&amp;nbsp;SIGN IN&lt;/font&gt;&lt;/font&gt;" style="rhombus;whiteSpace=wrap;html=1;" parent="WIyWlLk6GJQsqaUBKTNV-1" vertex="1">
          <mxGeometry x="320" y="760" width="80" height="80" as="geometry" />
        </mxCell>
        <mxCell id="IxoI0bGfIbi6MGj2JMH9-41" style="edgeStyle=orthogonalEdgeStyle;rounded=0;orthogonalLoop=1;jettySize=auto;html=1;exitX=0.5;exitY=1;exitDx=0;exitDy=0;entryX=0.5;entryY=0;entryDx=0;entryDy=0;" parent="WIyWlLk6GJQsqaUBKTNV-1" source="IxoI0bGfIbi6MGj2JMH9-38" target="IxoI0bGfIbi6MGj2JMH9-37" edge="1">
          <mxGeometry relative="1" as="geometry" />
        </mxCell>
        <mxCell id="XxRSkG4TPEDueCD8kfSd-65" style="edgeStyle=orthogonalEdgeStyle;rounded=0;orthogonalLoop=1;jettySize=auto;html=1;exitX=1;exitY=1;exitDx=0;exitDy=0;" edge="1" parent="WIyWlLk6GJQsqaUBKTNV-1" source="IxoI0bGfIbi6MGj2JMH9-38">
          <mxGeometry relative="1" as="geometry">
            <mxPoint x="440" y="732.4" as="targetPoint" />
          </mxGeometry>
        </mxCell>
        <mxCell id="IxoI0bGfIbi6MGj2JMH9-38" value="&lt;div&gt;&lt;font style=&quot;font-size: 8px;&quot;&gt;main_menu()&lt;/font&gt;&lt;/div&gt;&lt;font style=&quot;font-size: 8px;&quot;&gt;[1] SIGN IN&lt;/font&gt;&lt;div&gt;&lt;font style=&quot;font-size: 8px;&quot;&gt;[2] SIGN UP&lt;/font&gt;&lt;/div&gt;&lt;div&gt;&lt;font style=&quot;font-size: 8px;&quot;&gt;[3] KELUAR PROGRAM&lt;/font&gt;&lt;/div&gt;" style="shape=parallelogram;perimeter=parallelogramPerimeter;whiteSpace=wrap;html=1;fixedSize=1;" parent="WIyWlLk6GJQsqaUBKTNV-1" vertex="1">
          <mxGeometry x="290" y="680" width="140" height="60" as="geometry" />
        </mxCell>
        <mxCell id="IxoI0bGfIbi6MGj2JMH9-171" style="edgeStyle=orthogonalEdgeStyle;rounded=0;orthogonalLoop=1;jettySize=auto;html=1;exitX=0;exitY=0.5;exitDx=0;exitDy=0;" parent="WIyWlLk6GJQsqaUBKTNV-1" source="IxoI0bGfIbi6MGj2JMH9-42" edge="1">
          <mxGeometry relative="1" as="geometry">
            <mxPoint x="525.1190476190475" y="799.6666666666666" as="targetPoint" />
          </mxGeometry>
        </mxCell>
        <mxCell id="IxoI0bGfIbi6MGj2JMH9-177" style="edgeStyle=orthogonalEdgeStyle;rounded=0;orthogonalLoop=1;jettySize=auto;html=1;exitDx=0;exitDy=0;entryX=0;entryY=0.5;entryDx=0;entryDy=0;" parent="WIyWlLk6GJQsqaUBKTNV-1" source="IxoI0bGfIbi6MGj2JMH9-217" target="IxoI0bGfIbi6MGj2JMH9-176" edge="1">
          <mxGeometry relative="1" as="geometry" />
        </mxCell>
        <mxCell id="XxRSkG4TPEDueCD8kfSd-52" style="edgeStyle=orthogonalEdgeStyle;rounded=0;orthogonalLoop=1;jettySize=auto;html=1;exitX=0.5;exitY=1;exitDx=0;exitDy=0;entryX=0.5;entryY=0;entryDx=0;entryDy=0;" edge="1" parent="WIyWlLk6GJQsqaUBKTNV-1" source="IxoI0bGfIbi6MGj2JMH9-42" target="XxRSkG4TPEDueCD8kfSd-51">
          <mxGeometry relative="1" as="geometry" />
        </mxCell>
        <mxCell id="XxRSkG4TPEDueCD8kfSd-54" value="&lt;b&gt;True&lt;/b&gt;" style="edgeLabel;html=1;align=center;verticalAlign=middle;resizable=0;points=[];" vertex="1" connectable="0" parent="XxRSkG4TPEDueCD8kfSd-52">
          <mxGeometry x="-0.2943" y="-2" relative="1" as="geometry">
            <mxPoint x="2" as="offset" />
          </mxGeometry>
        </mxCell>
        <mxCell id="IxoI0bGfIbi6MGj2JMH9-42" value="&lt;font style=&quot;font-size: 8px;&quot;&gt;user = admin&lt;/font&gt;" style="rhombus;whiteSpace=wrap;html=1;" parent="WIyWlLk6GJQsqaUBKTNV-1" vertex="1">
          <mxGeometry x="525" y="760" width="80" height="80" as="geometry" />
        </mxCell>
        <mxCell id="IxoI0bGfIbi6MGj2JMH9-136" style="edgeStyle=orthogonalEdgeStyle;rounded=0;orthogonalLoop=1;jettySize=auto;html=1;exitX=0;exitY=0.5;exitDx=0;exitDy=0;entryX=1;entryY=0.5;entryDx=0;entryDy=0;fontStyle=1" parent="WIyWlLk6GJQsqaUBKTNV-1" source="IxoI0bGfIbi6MGj2JMH9-47" target="IxoI0bGfIbi6MGj2JMH9-139" edge="1">
          <mxGeometry relative="1" as="geometry">
            <mxPoint x="270" y="957.5" as="targetPoint" />
          </mxGeometry>
        </mxCell>
        <mxCell id="IxoI0bGfIbi6MGj2JMH9-137" value="&lt;b&gt;True&lt;/b&gt;" style="edgeLabel;html=1;align=center;verticalAlign=middle;resizable=0;points=[];" parent="IxoI0bGfIbi6MGj2JMH9-136" vertex="1" connectable="0">
          <mxGeometry x="-0.12" y="-2" relative="1" as="geometry">
            <mxPoint x="-3" y="2" as="offset" />
          </mxGeometry>
        </mxCell>
        <mxCell id="IxoI0bGfIbi6MGj2JMH9-143" style="edgeStyle=orthogonalEdgeStyle;rounded=0;orthogonalLoop=1;jettySize=auto;html=1;exitX=0.5;exitY=1;exitDx=0;exitDy=0;entryX=0.5;entryY=0;entryDx=0;entryDy=0;fontStyle=1" parent="WIyWlLk6GJQsqaUBKTNV-1" source="IxoI0bGfIbi6MGj2JMH9-47" target="IxoI0bGfIbi6MGj2JMH9-142" edge="1">
          <mxGeometry relative="1" as="geometry" />
        </mxCell>
        <mxCell id="IxoI0bGfIbi6MGj2JMH9-144" value="&lt;b&gt;False&lt;/b&gt;" style="edgeLabel;html=1;align=center;verticalAlign=middle;resizable=0;points=[];" parent="IxoI0bGfIbi6MGj2JMH9-143" vertex="1" connectable="0">
          <mxGeometry x="-0.4617" relative="1" as="geometry">
            <mxPoint y="8" as="offset" />
          </mxGeometry>
        </mxCell>
        <mxCell id="IxoI0bGfIbi6MGj2JMH9-47" value="&lt;font style=&quot;font-size: 8px;&quot;&gt;[2]&lt;font style=&quot;&quot;&gt;&amp;nbsp;SIGN UP&lt;/font&gt;&lt;/font&gt;" style="rhombus;whiteSpace=wrap;html=1;" parent="WIyWlLk6GJQsqaUBKTNV-1" vertex="1">
          <mxGeometry x="320" y="917.5" width="80" height="80" as="geometry" />
        </mxCell>
        <mxCell id="IxoI0bGfIbi6MGj2JMH9-62" style="edgeStyle=orthogonalEdgeStyle;rounded=0;orthogonalLoop=1;jettySize=auto;html=1;exitX=0.5;exitY=1;exitDx=0;exitDy=0;entryX=0.5;entryY=0;entryDx=0;entryDy=0;" parent="WIyWlLk6GJQsqaUBKTNV-1" source="IxoI0bGfIbi6MGj2JMH9-48" target="IxoI0bGfIbi6MGj2JMH9-61" edge="1">
          <mxGeometry relative="1" as="geometry" />
        </mxCell>
        <mxCell id="IxoI0bGfIbi6MGj2JMH9-102" value="False" style="edgeLabel;html=1;align=center;verticalAlign=middle;resizable=0;points=[];fontStyle=1" parent="IxoI0bGfIbi6MGj2JMH9-62" vertex="1" connectable="0">
          <mxGeometry x="-0.0925" y="-2" relative="1" as="geometry">
            <mxPoint x="2" as="offset" />
          </mxGeometry>
        </mxCell>
        <mxCell id="IxoI0bGfIbi6MGj2JMH9-153" style="edgeStyle=orthogonalEdgeStyle;rounded=0;orthogonalLoop=1;jettySize=auto;html=1;exitX=1;exitY=0.5;exitDx=0;exitDy=0;entryX=0;entryY=0.5;entryDx=0;entryDy=0;" parent="WIyWlLk6GJQsqaUBKTNV-1" source="IxoI0bGfIbi6MGj2JMH9-48" target="IxoI0bGfIbi6MGj2JMH9-64" edge="1">
          <mxGeometry relative="1" as="geometry" />
        </mxCell>
        <mxCell id="IxoI0bGfIbi6MGj2JMH9-157" value="&lt;b&gt;True&lt;/b&gt;" style="edgeLabel;html=1;align=center;verticalAlign=middle;resizable=0;points=[];" parent="IxoI0bGfIbi6MGj2JMH9-153" vertex="1" connectable="0">
          <mxGeometry x="-0.1462" y="1" relative="1" as="geometry">
            <mxPoint as="offset" />
          </mxGeometry>
        </mxCell>
        <mxCell id="IxoI0bGfIbi6MGj2JMH9-48" value="&lt;span style=&quot;font-size: 8px;&quot;&gt;[1] Booking Room&lt;/span&gt;" style="rhombus;whiteSpace=wrap;html=1;" parent="WIyWlLk6GJQsqaUBKTNV-1" vertex="1">
          <mxGeometry x="525" y="1159.63" width="80" height="80" as="geometry" />
        </mxCell>
        <mxCell id="IxoI0bGfIbi6MGj2JMH9-154" style="edgeStyle=orthogonalEdgeStyle;rounded=0;orthogonalLoop=1;jettySize=auto;html=1;exitX=1;exitY=0.5;exitDx=0;exitDy=0;entryX=0;entryY=0.5;entryDx=0;entryDy=0;" parent="WIyWlLk6GJQsqaUBKTNV-1" source="IxoI0bGfIbi6MGj2JMH9-61" target="IxoI0bGfIbi6MGj2JMH9-70" edge="1">
          <mxGeometry relative="1" as="geometry" />
        </mxCell>
        <mxCell id="IxoI0bGfIbi6MGj2JMH9-156" value="&lt;b&gt;True&lt;/b&gt;" style="edgeLabel;html=1;align=center;verticalAlign=middle;resizable=0;points=[];" parent="IxoI0bGfIbi6MGj2JMH9-154" vertex="1" connectable="0">
          <mxGeometry x="-0.2912" y="-1" relative="1" as="geometry">
            <mxPoint x="4" y="-1" as="offset" />
          </mxGeometry>
        </mxCell>
        <mxCell id="XxRSkG4TPEDueCD8kfSd-66" style="edgeStyle=orthogonalEdgeStyle;rounded=0;orthogonalLoop=1;jettySize=auto;html=1;exitX=0.5;exitY=1;exitDx=0;exitDy=0;entryX=0.5;entryY=0;entryDx=0;entryDy=0;" edge="1" parent="WIyWlLk6GJQsqaUBKTNV-1" source="IxoI0bGfIbi6MGj2JMH9-61" target="XxRSkG4TPEDueCD8kfSd-46">
          <mxGeometry relative="1" as="geometry" />
        </mxCell>
        <mxCell id="XxRSkG4TPEDueCD8kfSd-76" value="&lt;b&gt;False&lt;/b&gt;" style="edgeLabel;html=1;align=center;verticalAlign=middle;resizable=0;points=[];" vertex="1" connectable="0" parent="XxRSkG4TPEDueCD8kfSd-66">
          <mxGeometry x="-0.5499" y="-3" relative="1" as="geometry">
            <mxPoint x="3" y="2" as="offset" />
          </mxGeometry>
        </mxCell>
        <mxCell id="IxoI0bGfIbi6MGj2JMH9-61" value="&lt;span style=&quot;font-size: 8px;&quot;&gt;[2] Hapus Room&lt;/span&gt;" style="rhombus;whiteSpace=wrap;html=1;" parent="WIyWlLk6GJQsqaUBKTNV-1" vertex="1">
          <mxGeometry x="525" y="1281.5" width="80" height="80" as="geometry" />
        </mxCell>
        <mxCell id="IxoI0bGfIbi6MGj2JMH9-207" style="edgeStyle=orthogonalEdgeStyle;rounded=0;orthogonalLoop=1;jettySize=auto;html=1;exitX=1;exitY=0.5;exitDx=0;exitDy=0;" parent="WIyWlLk6GJQsqaUBKTNV-1" source="IxoI0bGfIbi6MGj2JMH9-64" target="IxoI0bGfIbi6MGj2JMH9-161" edge="1">
          <mxGeometry relative="1" as="geometry" />
        </mxCell>
        <mxCell id="IxoI0bGfIbi6MGj2JMH9-64" value="&lt;span style=&quot;font-size: 8px;&quot;&gt;booking_room()&lt;/span&gt;" style="rounded=0;whiteSpace=wrap;html=1;" parent="WIyWlLk6GJQsqaUBKTNV-1" vertex="1">
          <mxGeometry x="663.5" y="1177.76" width="100" height="43.75" as="geometry" />
        </mxCell>
        <mxCell id="IxoI0bGfIbi6MGj2JMH9-70" value="&lt;span style=&quot;font-size: 8px;&quot;&gt;clear_room()&lt;/span&gt;" style="rounded=0;whiteSpace=wrap;html=1;" parent="WIyWlLk6GJQsqaUBKTNV-1" vertex="1">
          <mxGeometry x="663.5" y="1299.62" width="100" height="43.75" as="geometry" />
        </mxCell>
        <mxCell id="IxoI0bGfIbi6MGj2JMH9-78" value="&lt;span style=&quot;font-size: 8px;&quot;&gt;list_room()&lt;/span&gt;" style="rounded=0;whiteSpace=wrap;html=1;" parent="WIyWlLk6GJQsqaUBKTNV-1" vertex="1">
          <mxGeometry x="663.5" y="1518.12" width="100" height="43.75" as="geometry" />
        </mxCell>
        <mxCell id="IxoI0bGfIbi6MGj2JMH9-88" style="edgeStyle=orthogonalEdgeStyle;rounded=0;orthogonalLoop=1;jettySize=auto;html=1;exitX=0.5;exitY=1;exitDx=0;exitDy=0;entryX=0.5;entryY=0;entryDx=0;entryDy=0;" parent="WIyWlLk6GJQsqaUBKTNV-1" source="IxoI0bGfIbi6MGj2JMH9-84" target="IxoI0bGfIbi6MGj2JMH9-87" edge="1">
          <mxGeometry relative="1" as="geometry" />
        </mxCell>
        <mxCell id="IxoI0bGfIbi6MGj2JMH9-105" value="&lt;b&gt;False&lt;/b&gt;" style="edgeLabel;html=1;align=center;verticalAlign=middle;resizable=0;points=[];" parent="IxoI0bGfIbi6MGj2JMH9-88" vertex="1" connectable="0">
          <mxGeometry x="-0.2367" y="-1" relative="1" as="geometry">
            <mxPoint as="offset" />
          </mxGeometry>
        </mxCell>
        <mxCell id="IxoI0bGfIbi6MGj2JMH9-234" style="edgeStyle=orthogonalEdgeStyle;rounded=0;orthogonalLoop=1;jettySize=auto;html=1;exitX=1;exitY=0.5;exitDx=0;exitDy=0;entryX=0.747;entryY=0.09;entryDx=0;entryDy=0;entryPerimeter=0;fillColor=#f8cecc;strokeColor=#B85450;" parent="WIyWlLk6GJQsqaUBKTNV-1" source="IxoI0bGfIbi6MGj2JMH9-84" target="IxoI0bGfIbi6MGj2JMH9-231" edge="1">
          <mxGeometry relative="1" as="geometry">
            <mxPoint x="880" y="1204" as="targetPoint" />
          </mxGeometry>
        </mxCell>
        <mxCell id="wDX1XAeY3l_AuzxPxky8-5" value="&lt;b&gt;True&lt;/b&gt;" style="edgeLabel;html=1;align=center;verticalAlign=middle;resizable=0;points=[];" parent="IxoI0bGfIbi6MGj2JMH9-234" vertex="1" connectable="0">
          <mxGeometry x="-0.9052" relative="1" as="geometry">
            <mxPoint x="-3" as="offset" />
          </mxGeometry>
        </mxCell>
        <mxCell id="IxoI0bGfIbi6MGj2JMH9-84" value="&lt;span style=&quot;font-size: 8px;&quot;&gt;[6] Log Out&lt;/span&gt;" style="rhombus;whiteSpace=wrap;html=1;" parent="WIyWlLk6GJQsqaUBKTNV-1" vertex="1">
          <mxGeometry x="525" y="1730" width="80" height="80" as="geometry" />
        </mxCell>
        <mxCell id="IxoI0bGfIbi6MGj2JMH9-92" style="edgeStyle=orthogonalEdgeStyle;rounded=0;orthogonalLoop=1;jettySize=auto;html=1;exitX=0.5;exitY=1;exitDx=0;exitDy=0;fontStyle=1;entryX=0.5;entryY=0;entryDx=0;entryDy=0;" parent="WIyWlLk6GJQsqaUBKTNV-1" source="IxoI0bGfIbi6MGj2JMH9-87" target="IxoI0bGfIbi6MGj2JMH9-91" edge="1">
          <mxGeometry relative="1" as="geometry">
            <mxPoint x="565" y="1950" as="targetPoint" />
          </mxGeometry>
        </mxCell>
        <mxCell id="IxoI0bGfIbi6MGj2JMH9-94" value="&lt;b&gt;True&lt;/b&gt;" style="edgeLabel;html=1;align=center;verticalAlign=middle;resizable=0;points=[];" parent="IxoI0bGfIbi6MGj2JMH9-92" vertex="1" connectable="0">
          <mxGeometry x="-0.1667" y="1" relative="1" as="geometry">
            <mxPoint x="-1" y="6" as="offset" />
          </mxGeometry>
        </mxCell>
        <mxCell id="XxRSkG4TPEDueCD8kfSd-102" style="edgeStyle=orthogonalEdgeStyle;rounded=0;orthogonalLoop=1;jettySize=auto;html=1;exitX=0;exitY=0.5;exitDx=0;exitDy=0;entryX=0;entryY=0.5;entryDx=0;entryDy=0;" edge="1" parent="WIyWlLk6GJQsqaUBKTNV-1" source="IxoI0bGfIbi6MGj2JMH9-87" target="XxRSkG4TPEDueCD8kfSd-51">
          <mxGeometry relative="1" as="geometry">
            <Array as="points">
              <mxPoint x="480" y="1876" />
              <mxPoint x="480" y="947" />
            </Array>
          </mxGeometry>
        </mxCell>
        <mxCell id="XxRSkG4TPEDueCD8kfSd-103" value="&lt;b&gt;False&lt;/b&gt;" style="edgeLabel;html=1;align=center;verticalAlign=middle;resizable=0;points=[];" vertex="1" connectable="0" parent="XxRSkG4TPEDueCD8kfSd-102">
          <mxGeometry x="-0.9646" y="-1" relative="1" as="geometry">
            <mxPoint x="-7" y="1" as="offset" />
          </mxGeometry>
        </mxCell>
        <mxCell id="IxoI0bGfIbi6MGj2JMH9-87" value="&lt;span style=&quot;font-size: 8px;&quot;&gt;[7] EXIT&lt;/span&gt;" style="rhombus;whiteSpace=wrap;html=1;" parent="WIyWlLk6GJQsqaUBKTNV-1" vertex="1">
          <mxGeometry x="525" y="1836" width="80" height="80" as="geometry" />
        </mxCell>
        <mxCell id="IxoI0bGfIbi6MGj2JMH9-91" value="&lt;span style=&quot;font-size: 8px;&quot;&gt;Akhiri Program&lt;/span&gt;" style="rounded=0;whiteSpace=wrap;html=1;" parent="WIyWlLk6GJQsqaUBKTNV-1" vertex="1">
          <mxGeometry x="515" y="1960" width="100" height="43.75" as="geometry" />
        </mxCell>
        <mxCell id="IxoI0bGfIbi6MGj2JMH9-139" value="&lt;span style=&quot;font-size: 8px;&quot;&gt;Tambahkan ID Baru&lt;/span&gt;&lt;div&gt;&lt;span style=&quot;font-size: 8px;&quot;&gt;Tambahkan Password Baru&lt;/span&gt;&lt;/div&gt;" style="rounded=0;whiteSpace=wrap;html=1;" parent="WIyWlLk6GJQsqaUBKTNV-1" vertex="1">
          <mxGeometry x="150" y="935.6199999999999" width="110" height="43.75" as="geometry" />
        </mxCell>
        <mxCell id="IxoI0bGfIbi6MGj2JMH9-151" style="edgeStyle=orthogonalEdgeStyle;rounded=0;orthogonalLoop=1;jettySize=auto;html=1;exitX=0;exitY=0.5;exitDx=0;exitDy=0;" parent="WIyWlLk6GJQsqaUBKTNV-1" source="IxoI0bGfIbi6MGj2JMH9-142" edge="1">
          <mxGeometry relative="1" as="geometry">
            <mxPoint x="110" y="960" as="targetPoint" />
          </mxGeometry>
        </mxCell>
        <mxCell id="IxoI0bGfIbi6MGj2JMH9-170" value="&lt;b&gt;False&lt;/b&gt;" style="edgeLabel;html=1;align=center;verticalAlign=middle;resizable=0;points=[];" parent="IxoI0bGfIbi6MGj2JMH9-151" vertex="1" connectable="0">
          <mxGeometry x="-0.7829" y="2" relative="1" as="geometry">
            <mxPoint x="7" y="-2" as="offset" />
          </mxGeometry>
        </mxCell>
        <mxCell id="IxoI0bGfIbi6MGj2JMH9-142" value="&lt;font style=&quot;font-size: 8px;&quot;&gt;[3] KELUAR PROGRAM&lt;/font&gt;" style="rhombus;whiteSpace=wrap;html=1;" parent="WIyWlLk6GJQsqaUBKTNV-1" vertex="1">
          <mxGeometry x="320" y="1051.88" width="80" height="80" as="geometry" />
        </mxCell>
        <mxCell id="IxoI0bGfIbi6MGj2JMH9-161" value="" style="shape=waypoint;sketch=0;size=6;pointerEvents=1;points=[];fillColor=none;resizable=0;rotatable=0;perimeter=centerPerimeter;snapToPoint=1;" parent="WIyWlLk6GJQsqaUBKTNV-1" vertex="1">
          <mxGeometry x="803.5" y="1189.63" width="20" height="20" as="geometry" />
        </mxCell>
        <mxCell id="IxoI0bGfIbi6MGj2JMH9-165" value="" style="shape=waypoint;sketch=0;size=6;pointerEvents=1;points=[];fillColor=none;resizable=0;rotatable=0;perimeter=centerPerimeter;snapToPoint=1;" parent="WIyWlLk6GJQsqaUBKTNV-1" vertex="1">
          <mxGeometry x="803.5" y="1311.5" width="20" height="20" as="geometry" />
        </mxCell>
        <mxCell id="IxoI0bGfIbi6MGj2JMH9-188" style="edgeStyle=orthogonalEdgeStyle;rounded=0;orthogonalLoop=1;jettySize=auto;html=1;exitX=0.5;exitY=1;exitDx=0;exitDy=0;entryX=0.486;entryY=-0.038;entryDx=0;entryDy=0;entryPerimeter=0;" parent="WIyWlLk6GJQsqaUBKTNV-1" source="IxoI0bGfIbi6MGj2JMH9-176" target="IxoI0bGfIbi6MGj2JMH9-182" edge="1">
          <mxGeometry relative="1" as="geometry">
            <mxPoint x="1004.7826086956522" y="868.88" as="targetPoint" />
          </mxGeometry>
        </mxCell>
        <mxCell id="IxoI0bGfIbi6MGj2JMH9-176" value="&lt;span style=&quot;font-size: 8px;&quot;&gt;user_menu()&lt;/span&gt;&lt;div&gt;&lt;div&gt;&lt;span style=&quot;font-size: 8px;&quot;&gt;[4] List Room&lt;/span&gt;&lt;/div&gt;&lt;div&gt;&lt;span style=&quot;font-size: 8px;&quot;&gt;[5] Room Kosong&lt;/span&gt;&lt;/div&gt;&lt;div&gt;&lt;span style=&quot;font-size: 8px;&quot;&gt;[6] Log Out&lt;/span&gt;&lt;/div&gt;&lt;div&gt;&lt;span style=&quot;font-size: 8px;&quot;&gt;[7] EXIT&lt;/span&gt;&lt;/div&gt;&lt;/div&gt;" style="shape=parallelogram;perimeter=parallelogramPerimeter;whiteSpace=wrap;html=1;fixedSize=1;" parent="WIyWlLk6GJQsqaUBKTNV-1" vertex="1">
          <mxGeometry x="940" y="761.38" width="130" height="75" as="geometry" />
        </mxCell>
        <mxCell id="IxoI0bGfIbi6MGj2JMH9-178" style="edgeStyle=orthogonalEdgeStyle;rounded=0;orthogonalLoop=1;jettySize=auto;html=1;exitX=1;exitY=0.5;exitDx=0;exitDy=0;" parent="WIyWlLk6GJQsqaUBKTNV-1" source="IxoI0bGfIbi6MGj2JMH9-182" target="IxoI0bGfIbi6MGj2JMH9-183" edge="1">
          <mxGeometry relative="1" as="geometry" />
        </mxCell>
        <mxCell id="IxoI0bGfIbi6MGj2JMH9-179" value="&lt;b&gt;True&lt;/b&gt;" style="edgeLabel;html=1;align=center;verticalAlign=middle;resizable=0;points=[];" parent="IxoI0bGfIbi6MGj2JMH9-178" vertex="1" connectable="0">
          <mxGeometry x="-0.1669" y="2" relative="1" as="geometry">
            <mxPoint x="1" y="2" as="offset" />
          </mxGeometry>
        </mxCell>
        <mxCell id="XxRSkG4TPEDueCD8kfSd-112" style="edgeStyle=orthogonalEdgeStyle;rounded=0;orthogonalLoop=1;jettySize=auto;html=1;exitX=0.5;exitY=1;exitDx=0;exitDy=0;entryX=0;entryY=0.5;entryDx=0;entryDy=0;" edge="1" parent="WIyWlLk6GJQsqaUBKTNV-1" source="IxoI0bGfIbi6MGj2JMH9-182" target="XxRSkG4TPEDueCD8kfSd-111">
          <mxGeometry relative="1" as="geometry" />
        </mxCell>
        <mxCell id="XxRSkG4TPEDueCD8kfSd-123" value="&lt;b&gt;False&lt;/b&gt;" style="edgeLabel;html=1;align=center;verticalAlign=middle;resizable=0;points=[];" vertex="1" connectable="0" parent="XxRSkG4TPEDueCD8kfSd-112">
          <mxGeometry x="-0.3326" relative="1" as="geometry">
            <mxPoint as="offset" />
          </mxGeometry>
        </mxCell>
        <mxCell id="IxoI0bGfIbi6MGj2JMH9-182" value="&lt;span style=&quot;font-size: 8px;&quot;&gt;[4] List Room&lt;/span&gt;" style="rhombus;whiteSpace=wrap;html=1;" parent="WIyWlLk6GJQsqaUBKTNV-1" vertex="1">
          <mxGeometry x="960" y="878.88" width="80" height="80" as="geometry" />
        </mxCell>
        <mxCell id="IxoI0bGfIbi6MGj2JMH9-183" value="&lt;span style=&quot;font-size: 8px;&quot;&gt;list_room()&lt;/span&gt;" style="rounded=0;whiteSpace=wrap;html=1;" parent="WIyWlLk6GJQsqaUBKTNV-1" vertex="1">
          <mxGeometry x="1098.5" y="897.0100000000001" width="100" height="43.75" as="geometry" />
        </mxCell>
        <mxCell id="IxoI0bGfIbi6MGj2JMH9-184" style="edgeStyle=orthogonalEdgeStyle;rounded=0;orthogonalLoop=1;jettySize=auto;html=1;exitX=0.5;exitY=1;exitDx=0;exitDy=0;entryX=0.5;entryY=0;entryDx=0;entryDy=0;" parent="WIyWlLk6GJQsqaUBKTNV-1" source="IxoI0bGfIbi6MGj2JMH9-186" target="IxoI0bGfIbi6MGj2JMH9-187" edge="1">
          <mxGeometry relative="1" as="geometry" />
        </mxCell>
        <mxCell id="IxoI0bGfIbi6MGj2JMH9-185" value="&lt;b&gt;False&lt;/b&gt;" style="edgeLabel;html=1;align=center;verticalAlign=middle;resizable=0;points=[];" parent="IxoI0bGfIbi6MGj2JMH9-184" vertex="1" connectable="0">
          <mxGeometry x="-0.2367" y="-1" relative="1" as="geometry">
            <mxPoint as="offset" />
          </mxGeometry>
        </mxCell>
        <mxCell id="IxoI0bGfIbi6MGj2JMH9-186" value="&lt;span style=&quot;font-size: 8px;&quot;&gt;[6] Log Out&lt;/span&gt;" style="rhombus;whiteSpace=wrap;html=1;" parent="WIyWlLk6GJQsqaUBKTNV-1" vertex="1">
          <mxGeometry x="960" y="1120" width="80" height="80" as="geometry" />
        </mxCell>
        <mxCell id="IxoI0bGfIbi6MGj2JMH9-212" style="edgeStyle=orthogonalEdgeStyle;rounded=0;orthogonalLoop=1;jettySize=auto;html=1;exitX=0.5;exitY=1;exitDx=0;exitDy=0;entryX=0.5;entryY=0;entryDx=0;entryDy=0;" parent="WIyWlLk6GJQsqaUBKTNV-1" source="IxoI0bGfIbi6MGj2JMH9-187" target="IxoI0bGfIbi6MGj2JMH9-211" edge="1">
          <mxGeometry relative="1" as="geometry" />
        </mxCell>
        <mxCell id="IxoI0bGfIbi6MGj2JMH9-215" value="&lt;b&gt;True&lt;/b&gt;" style="edgeLabel;html=1;align=center;verticalAlign=middle;resizable=0;points=[];" parent="IxoI0bGfIbi6MGj2JMH9-212" vertex="1" connectable="0">
          <mxGeometry x="-0.3693" y="-2" relative="1" as="geometry">
            <mxPoint x="2" y="1" as="offset" />
          </mxGeometry>
        </mxCell>
        <mxCell id="IxoI0bGfIbi6MGj2JMH9-216" style="edgeStyle=orthogonalEdgeStyle;rounded=0;orthogonalLoop=1;jettySize=auto;html=1;exitX=0;exitY=0.5;exitDx=0;exitDy=0;entryX=0.5;entryY=0.743;entryDx=0;entryDy=0;entryPerimeter=0;" parent="WIyWlLk6GJQsqaUBKTNV-1" source="IxoI0bGfIbi6MGj2JMH9-187" target="IxoI0bGfIbi6MGj2JMH9-217" edge="1">
          <mxGeometry relative="1" as="geometry">
            <mxPoint x="910" y="808.88" as="targetPoint" />
          </mxGeometry>
        </mxCell>
        <mxCell id="wDX1XAeY3l_AuzxPxky8-7" value="&lt;b&gt;False&lt;/b&gt;" style="edgeLabel;html=1;align=center;verticalAlign=middle;resizable=0;points=[];" parent="IxoI0bGfIbi6MGj2JMH9-216" vertex="1" connectable="0">
          <mxGeometry x="-0.8957" y="-1" relative="1" as="geometry">
            <mxPoint x="2" y="1" as="offset" />
          </mxGeometry>
        </mxCell>
        <mxCell id="IxoI0bGfIbi6MGj2JMH9-187" value="&lt;span style=&quot;font-size: 8px;&quot;&gt;[5] EXIT&lt;/span&gt;" style="rhombus;whiteSpace=wrap;html=1;" parent="WIyWlLk6GJQsqaUBKTNV-1" vertex="1">
          <mxGeometry x="960" y="1240.0000000000002" width="80" height="80" as="geometry" />
        </mxCell>
        <mxCell id="IxoI0bGfIbi6MGj2JMH9-205" style="edgeStyle=orthogonalEdgeStyle;rounded=0;orthogonalLoop=1;jettySize=auto;html=1;exitX=1;exitY=0.5;exitDx=0;exitDy=0;entryX=0.272;entryY=0.558;entryDx=0;entryDy=0;entryPerimeter=0;" parent="WIyWlLk6GJQsqaUBKTNV-1" source="IxoI0bGfIbi6MGj2JMH9-70" target="IxoI0bGfIbi6MGj2JMH9-165" edge="1">
          <mxGeometry relative="1" as="geometry" />
        </mxCell>
        <mxCell id="IxoI0bGfIbi6MGj2JMH9-206" value="" style="endArrow=classic;html=1;rounded=0;exitX=0.458;exitY=0.118;exitDx=0;exitDy=0;exitPerimeter=0;" parent="WIyWlLk6GJQsqaUBKTNV-1" source="IxoI0bGfIbi6MGj2JMH9-165" target="IxoI0bGfIbi6MGj2JMH9-161" edge="1">
          <mxGeometry width="50" height="50" relative="1" as="geometry">
            <mxPoint x="780" y="1284" as="sourcePoint" />
            <mxPoint x="830" y="1234" as="targetPoint" />
          </mxGeometry>
        </mxCell>
        <mxCell id="IxoI0bGfIbi6MGj2JMH9-210" value="" style="edgeStyle=orthogonalEdgeStyle;rounded=0;orthogonalLoop=1;jettySize=auto;html=1;exitX=0;exitY=0.5;exitDx=0;exitDy=0;entryDx=0;entryDy=0;" parent="WIyWlLk6GJQsqaUBKTNV-1" source="IxoI0bGfIbi6MGj2JMH9-139" target="IxoI0bGfIbi6MGj2JMH9-209" edge="1">
          <mxGeometry relative="1" as="geometry">
            <mxPoint x="150" y="957" as="sourcePoint" />
            <mxPoint x="300" y="705" as="targetPoint" />
            <Array as="points">
              <mxPoint x="110" y="957" />
            </Array>
          </mxGeometry>
        </mxCell>
        <mxCell id="IxoI0bGfIbi6MGj2JMH9-209" value="" style="shape=waypoint;sketch=0;size=6;pointerEvents=1;points=[];fillColor=none;resizable=0;rotatable=0;perimeter=centerPerimeter;snapToPoint=1;" parent="WIyWlLk6GJQsqaUBKTNV-1" vertex="1">
          <mxGeometry x="100" y="947.49" width="20" height="20" as="geometry" />
        </mxCell>
        <mxCell id="IxoI0bGfIbi6MGj2JMH9-211" value="&lt;span style=&quot;font-size: 8px;&quot;&gt;Akhiri Program&lt;/span&gt;" style="rounded=0;whiteSpace=wrap;html=1;" parent="WIyWlLk6GJQsqaUBKTNV-1" vertex="1">
          <mxGeometry x="950" y="1380.0000000000002" width="100" height="43.75" as="geometry" />
        </mxCell>
        <mxCell id="IxoI0bGfIbi6MGj2JMH9-218" value="" style="edgeStyle=orthogonalEdgeStyle;rounded=0;orthogonalLoop=1;jettySize=auto;html=1;exitX=1;exitY=0.5;exitDx=0;exitDy=0;entryDx=0;entryDy=0;" parent="WIyWlLk6GJQsqaUBKTNV-1" source="IxoI0bGfIbi6MGj2JMH9-42" target="IxoI0bGfIbi6MGj2JMH9-217" edge="1">
          <mxGeometry relative="1" as="geometry">
            <mxPoint x="605" y="800" as="sourcePoint" />
            <mxPoint x="990" y="800" as="targetPoint" />
          </mxGeometry>
        </mxCell>
        <mxCell id="wDX1XAeY3l_AuzxPxky8-0" value="&lt;b&gt;False&lt;/b&gt;" style="edgeLabel;html=1;align=center;verticalAlign=middle;resizable=0;points=[];" parent="IxoI0bGfIbi6MGj2JMH9-218" vertex="1" connectable="0">
          <mxGeometry x="-0.6358" y="-3" relative="1" as="geometry">
            <mxPoint x="-4" y="-3" as="offset" />
          </mxGeometry>
        </mxCell>
        <mxCell id="IxoI0bGfIbi6MGj2JMH9-217" value="" style="shape=waypoint;sketch=0;size=6;pointerEvents=1;points=[];fillColor=none;resizable=0;rotatable=0;perimeter=centerPerimeter;snapToPoint=1;" parent="WIyWlLk6GJQsqaUBKTNV-1" vertex="1">
          <mxGeometry x="900" y="788.88" width="20" height="20" as="geometry" />
        </mxCell>
        <mxCell id="IxoI0bGfIbi6MGj2JMH9-224" value="" style="edgeStyle=orthogonalEdgeStyle;rounded=0;orthogonalLoop=1;jettySize=auto;html=1;exitX=0.5;exitY=1;exitDx=0;exitDy=0;entryDx=0;entryDy=0;entryX=0.427;entryY=0.274;entryPerimeter=0;" parent="WIyWlLk6GJQsqaUBKTNV-1" source="IxoI0bGfIbi6MGj2JMH9-142" target="XxRSkG4TPEDueCD8kfSd-131" edge="1">
          <mxGeometry relative="1" as="geometry">
            <mxPoint x="360" y="1132" as="sourcePoint" />
            <mxPoint x="359.9999999999998" y="1750" as="targetPoint" />
          </mxGeometry>
        </mxCell>
        <mxCell id="IxoI0bGfIbi6MGj2JMH9-225" value="&lt;b&gt;True&lt;/b&gt;" style="edgeLabel;html=1;align=center;verticalAlign=middle;resizable=0;points=[];" parent="IxoI0bGfIbi6MGj2JMH9-224" vertex="1" connectable="0">
          <mxGeometry x="-0.8443" y="1" relative="1" as="geometry">
            <mxPoint x="-1" y="-27" as="offset" />
          </mxGeometry>
        </mxCell>
        <mxCell id="wDX1XAeY3l_AuzxPxky8-4" value="" style="endArrow=classic;html=1;rounded=0;entryX=0;entryY=0;entryDx=0;entryDy=0;" parent="WIyWlLk6GJQsqaUBKTNV-1" edge="1">
          <mxGeometry width="50" height="50" relative="1" as="geometry">
            <mxPoint x="1052" y="828.38" as="sourcePoint" />
            <mxPoint x="1085.3333333333335" y="827.88" as="targetPoint" />
          </mxGeometry>
        </mxCell>
        <mxCell id="XxRSkG4TPEDueCD8kfSd-11" style="edgeStyle=orthogonalEdgeStyle;rounded=0;orthogonalLoop=1;jettySize=auto;html=1;exitX=0.5;exitY=1;exitDx=0;exitDy=0;entryX=0.5;entryY=0;entryDx=0;entryDy=0;" edge="1" parent="WIyWlLk6GJQsqaUBKTNV-1" source="XxRSkG4TPEDueCD8kfSd-0" target="XxRSkG4TPEDueCD8kfSd-3">
          <mxGeometry relative="1" as="geometry" />
        </mxCell>
        <mxCell id="XxRSkG4TPEDueCD8kfSd-0" value="&lt;font style=&quot;font-size: 8px;&quot;&gt;def main_menu()&lt;/font&gt;" style="shape=process;whiteSpace=wrap;html=1;backgroundOutline=1;" vertex="1" parent="WIyWlLk6GJQsqaUBKTNV-1">
          <mxGeometry x="315" y="80" width="90" height="40" as="geometry" />
        </mxCell>
        <mxCell id="XxRSkG4TPEDueCD8kfSd-13" style="edgeStyle=orthogonalEdgeStyle;rounded=0;orthogonalLoop=1;jettySize=auto;html=1;exitX=0.5;exitY=1;exitDx=0;exitDy=0;entryX=0.5;entryY=0;entryDx=0;entryDy=0;" edge="1" parent="WIyWlLk6GJQsqaUBKTNV-1" source="XxRSkG4TPEDueCD8kfSd-2" target="XxRSkG4TPEDueCD8kfSd-7">
          <mxGeometry relative="1" as="geometry" />
        </mxCell>
        <mxCell id="XxRSkG4TPEDueCD8kfSd-2" value="&lt;font style=&quot;font-size: 8px;&quot;&gt;def user_menu()&lt;/font&gt;" style="shape=process;whiteSpace=wrap;html=1;backgroundOutline=1;" vertex="1" parent="WIyWlLk6GJQsqaUBKTNV-1">
          <mxGeometry x="315" y="200" width="90" height="40" as="geometry" />
        </mxCell>
        <mxCell id="XxRSkG4TPEDueCD8kfSd-12" style="edgeStyle=orthogonalEdgeStyle;rounded=0;orthogonalLoop=1;jettySize=auto;html=1;exitX=0.5;exitY=1;exitDx=0;exitDy=0;entryX=0.5;entryY=0;entryDx=0;entryDy=0;" edge="1" parent="WIyWlLk6GJQsqaUBKTNV-1" source="XxRSkG4TPEDueCD8kfSd-3" target="XxRSkG4TPEDueCD8kfSd-2">
          <mxGeometry relative="1" as="geometry" />
        </mxCell>
        <mxCell id="XxRSkG4TPEDueCD8kfSd-3" value="&lt;font style=&quot;font-size: 8px;&quot;&gt;def admin_menu()&lt;/font&gt;" style="shape=process;whiteSpace=wrap;html=1;backgroundOutline=1;" vertex="1" parent="WIyWlLk6GJQsqaUBKTNV-1">
          <mxGeometry x="315" y="140" width="90" height="40" as="geometry" />
        </mxCell>
        <mxCell id="XxRSkG4TPEDueCD8kfSd-16" style="edgeStyle=orthogonalEdgeStyle;rounded=0;orthogonalLoop=1;jettySize=auto;html=1;exitX=0.5;exitY=1;exitDx=0;exitDy=0;entryX=0.5;entryY=0;entryDx=0;entryDy=0;" edge="1" parent="WIyWlLk6GJQsqaUBKTNV-1" source="XxRSkG4TPEDueCD8kfSd-4" target="XxRSkG4TPEDueCD8kfSd-5">
          <mxGeometry relative="1" as="geometry" />
        </mxCell>
        <mxCell id="XxRSkG4TPEDueCD8kfSd-4" value="&lt;font style=&quot;font-size: 8px;&quot;&gt;def bikin_akun()&lt;/font&gt;" style="shape=process;whiteSpace=wrap;html=1;backgroundOutline=1;" vertex="1" parent="WIyWlLk6GJQsqaUBKTNV-1">
          <mxGeometry x="315" y="380" width="90" height="40" as="geometry" />
        </mxCell>
        <mxCell id="XxRSkG4TPEDueCD8kfSd-17" style="edgeStyle=orthogonalEdgeStyle;rounded=0;orthogonalLoop=1;jettySize=auto;html=1;exitX=0.5;exitY=1;exitDx=0;exitDy=0;entryX=0.5;entryY=0;entryDx=0;entryDy=0;" edge="1" parent="WIyWlLk6GJQsqaUBKTNV-1" source="XxRSkG4TPEDueCD8kfSd-5" target="XxRSkG4TPEDueCD8kfSd-6">
          <mxGeometry relative="1" as="geometry" />
        </mxCell>
        <mxCell id="XxRSkG4TPEDueCD8kfSd-5" value="&lt;font style=&quot;font-size: 8px;&quot;&gt;def room_kosong()&lt;/font&gt;" style="shape=process;whiteSpace=wrap;html=1;backgroundOutline=1;" vertex="1" parent="WIyWlLk6GJQsqaUBKTNV-1">
          <mxGeometry x="315" y="440" width="90" height="40" as="geometry" />
        </mxCell>
        <mxCell id="XxRSkG4TPEDueCD8kfSd-18" style="edgeStyle=orthogonalEdgeStyle;rounded=0;orthogonalLoop=1;jettySize=auto;html=1;exitX=0.5;exitY=1;exitDx=0;exitDy=0;entryX=0.5;entryY=0;entryDx=0;entryDy=0;" edge="1" parent="WIyWlLk6GJQsqaUBKTNV-1" source="XxRSkG4TPEDueCD8kfSd-6" target="XxRSkG4TPEDueCD8kfSd-8">
          <mxGeometry relative="1" as="geometry" />
        </mxCell>
        <mxCell id="XxRSkG4TPEDueCD8kfSd-6" value="&lt;font style=&quot;font-size: 8px;&quot;&gt;def booking_room()&lt;/font&gt;" style="shape=process;whiteSpace=wrap;html=1;backgroundOutline=1;" vertex="1" parent="WIyWlLk6GJQsqaUBKTNV-1">
          <mxGeometry x="315" y="500" width="90" height="40" as="geometry" />
        </mxCell>
        <mxCell id="XxRSkG4TPEDueCD8kfSd-14" style="edgeStyle=orthogonalEdgeStyle;rounded=0;orthogonalLoop=1;jettySize=auto;html=1;exitX=0.5;exitY=1;exitDx=0;exitDy=0;entryX=0.5;entryY=0;entryDx=0;entryDy=0;" edge="1" parent="WIyWlLk6GJQsqaUBKTNV-1" source="XxRSkG4TPEDueCD8kfSd-7" target="XxRSkG4TPEDueCD8kfSd-10">
          <mxGeometry relative="1" as="geometry" />
        </mxCell>
        <mxCell id="XxRSkG4TPEDueCD8kfSd-7" value="&lt;font style=&quot;font-size: 8px;&quot;&gt;def list_akun&lt;/font&gt;&lt;span style=&quot;font-size: 8px; background-color: initial;&quot;&gt;()&lt;/span&gt;" style="shape=process;whiteSpace=wrap;html=1;backgroundOutline=1;" vertex="1" parent="WIyWlLk6GJQsqaUBKTNV-1">
          <mxGeometry x="315" y="260" width="90" height="40" as="geometry" />
        </mxCell>
        <mxCell id="XxRSkG4TPEDueCD8kfSd-19" style="edgeStyle=orthogonalEdgeStyle;rounded=0;orthogonalLoop=1;jettySize=auto;html=1;exitX=0.5;exitY=1;exitDx=0;exitDy=0;entryX=0.5;entryY=0;entryDx=0;entryDy=0;" edge="1" parent="WIyWlLk6GJQsqaUBKTNV-1" source="XxRSkG4TPEDueCD8kfSd-8" target="XxRSkG4TPEDueCD8kfSd-9">
          <mxGeometry relative="1" as="geometry" />
        </mxCell>
        <mxCell id="XxRSkG4TPEDueCD8kfSd-8" value="&lt;font style=&quot;font-size: 8px;&quot;&gt;def clear_room&lt;/font&gt;&lt;span style=&quot;background-color: initial; font-size: 8px;&quot;&gt;()&lt;/span&gt;" style="shape=process;whiteSpace=wrap;html=1;backgroundOutline=1;" vertex="1" parent="WIyWlLk6GJQsqaUBKTNV-1">
          <mxGeometry x="315" y="560" width="90" height="40" as="geometry" />
        </mxCell>
        <mxCell id="XxRSkG4TPEDueCD8kfSd-22" style="edgeStyle=orthogonalEdgeStyle;rounded=0;orthogonalLoop=1;jettySize=auto;html=1;exitX=0.5;exitY=1;exitDx=0;exitDy=0;entryX=0.5;entryY=0;entryDx=0;entryDy=0;" edge="1" parent="WIyWlLk6GJQsqaUBKTNV-1" source="XxRSkG4TPEDueCD8kfSd-9" target="IxoI0bGfIbi6MGj2JMH9-38">
          <mxGeometry relative="1" as="geometry" />
        </mxCell>
        <mxCell id="XxRSkG4TPEDueCD8kfSd-9" value="&lt;font style=&quot;font-size: 8px;&quot;&gt;def clearall_room&lt;/font&gt;&lt;span style=&quot;background-color: initial; font-size: 8px;&quot;&gt;()&lt;/span&gt;" style="shape=process;whiteSpace=wrap;html=1;backgroundOutline=1;" vertex="1" parent="WIyWlLk6GJQsqaUBKTNV-1">
          <mxGeometry x="315" y="620" width="90" height="40" as="geometry" />
        </mxCell>
        <mxCell id="XxRSkG4TPEDueCD8kfSd-15" style="edgeStyle=orthogonalEdgeStyle;rounded=0;orthogonalLoop=1;jettySize=auto;html=1;exitX=0.5;exitY=1;exitDx=0;exitDy=0;entryX=0.5;entryY=0;entryDx=0;entryDy=0;" edge="1" parent="WIyWlLk6GJQsqaUBKTNV-1" source="XxRSkG4TPEDueCD8kfSd-10" target="XxRSkG4TPEDueCD8kfSd-4">
          <mxGeometry relative="1" as="geometry" />
        </mxCell>
        <mxCell id="XxRSkG4TPEDueCD8kfSd-10" value="&lt;font style=&quot;font-size: 8px;&quot;&gt;def list_room&lt;/font&gt;&lt;span style=&quot;font-size: 8px; background-color: initial;&quot;&gt;()&lt;/span&gt;" style="shape=process;whiteSpace=wrap;html=1;backgroundOutline=1;" vertex="1" parent="WIyWlLk6GJQsqaUBKTNV-1">
          <mxGeometry x="315" y="320" width="90" height="40" as="geometry" />
        </mxCell>
        <mxCell id="XxRSkG4TPEDueCD8kfSd-27" style="edgeStyle=orthogonalEdgeStyle;rounded=0;orthogonalLoop=1;jettySize=auto;html=1;exitX=0.5;exitY=1;exitDx=0;exitDy=0;entryX=0.5;entryY=0;entryDx=0;entryDy=0;" edge="1" parent="WIyWlLk6GJQsqaUBKTNV-1" source="XxRSkG4TPEDueCD8kfSd-24" target="IxoI0bGfIbi6MGj2JMH9-48">
          <mxGeometry relative="1" as="geometry" />
        </mxCell>
        <mxCell id="XxRSkG4TPEDueCD8kfSd-29" value="&lt;span style=&quot;font-weight: 700;&quot;&gt;False&lt;/span&gt;" style="edgeLabel;html=1;align=center;verticalAlign=middle;resizable=0;points=[];" vertex="1" connectable="0" parent="XxRSkG4TPEDueCD8kfSd-27">
          <mxGeometry x="-0.3815" y="-1" relative="1" as="geometry">
            <mxPoint x="1" y="2" as="offset" />
          </mxGeometry>
        </mxCell>
        <mxCell id="XxRSkG4TPEDueCD8kfSd-33" style="edgeStyle=orthogonalEdgeStyle;rounded=0;orthogonalLoop=1;jettySize=auto;html=1;exitX=1;exitY=0.5;exitDx=0;exitDy=0;entryX=0;entryY=0.5;entryDx=0;entryDy=0;" edge="1" parent="WIyWlLk6GJQsqaUBKTNV-1" source="XxRSkG4TPEDueCD8kfSd-24" target="XxRSkG4TPEDueCD8kfSd-30">
          <mxGeometry relative="1" as="geometry" />
        </mxCell>
        <mxCell id="XxRSkG4TPEDueCD8kfSd-45" value="&lt;b&gt;True&lt;/b&gt;" style="edgeLabel;html=1;align=center;verticalAlign=middle;resizable=0;points=[];" vertex="1" connectable="0" parent="XxRSkG4TPEDueCD8kfSd-33">
          <mxGeometry x="-0.2164" y="1" relative="1" as="geometry">
            <mxPoint x="2" y="1" as="offset" />
          </mxGeometry>
        </mxCell>
        <mxCell id="XxRSkG4TPEDueCD8kfSd-24" value="&lt;span style=&quot;font-size: 8px;&quot;&gt;[0] Ganti Password&lt;/span&gt;&lt;div&gt;&lt;span style=&quot;font-size: 8px;&quot;&gt;Akun&lt;/span&gt;&lt;/div&gt;" style="rhombus;whiteSpace=wrap;html=1;" vertex="1" parent="WIyWlLk6GJQsqaUBKTNV-1">
          <mxGeometry x="517.5" y="1044.63" width="95" height="75.37" as="geometry" />
        </mxCell>
        <mxCell id="XxRSkG4TPEDueCD8kfSd-42" style="edgeStyle=orthogonalEdgeStyle;rounded=0;orthogonalLoop=1;jettySize=auto;html=1;exitX=1;exitY=0.5;exitDx=0;exitDy=0;" edge="1" parent="WIyWlLk6GJQsqaUBKTNV-1" source="XxRSkG4TPEDueCD8kfSd-30" target="XxRSkG4TPEDueCD8kfSd-40">
          <mxGeometry relative="1" as="geometry" />
        </mxCell>
        <mxCell id="XxRSkG4TPEDueCD8kfSd-30" value="&lt;span style=&quot;font-size: 8px;&quot;&gt;list_akun()&lt;/span&gt;" style="rounded=0;whiteSpace=wrap;html=1;" vertex="1" parent="WIyWlLk6GJQsqaUBKTNV-1">
          <mxGeometry x="663.5" y="1060.44" width="100" height="43.75" as="geometry" />
        </mxCell>
        <mxCell id="XxRSkG4TPEDueCD8kfSd-101" style="edgeStyle=orthogonalEdgeStyle;rounded=0;orthogonalLoop=1;jettySize=auto;html=1;entryX=1;entryY=0.5;entryDx=0;entryDy=0;" edge="1" parent="WIyWlLk6GJQsqaUBKTNV-1" source="XxRSkG4TPEDueCD8kfSd-40" target="XxRSkG4TPEDueCD8kfSd-51">
          <mxGeometry relative="1" as="geometry">
            <Array as="points">
              <mxPoint x="814" y="947" />
            </Array>
          </mxGeometry>
        </mxCell>
        <mxCell id="XxRSkG4TPEDueCD8kfSd-40" value="" style="shape=waypoint;sketch=0;size=6;pointerEvents=1;points=[];fillColor=none;resizable=0;rotatable=0;perimeter=centerPerimeter;snapToPoint=1;" vertex="1" parent="WIyWlLk6GJQsqaUBKTNV-1">
          <mxGeometry x="803.5" y="1072.32" width="20" height="20" as="geometry" />
        </mxCell>
        <mxCell id="XxRSkG4TPEDueCD8kfSd-41" style="edgeStyle=orthogonalEdgeStyle;rounded=0;orthogonalLoop=1;jettySize=auto;html=1;entryX=0.459;entryY=0.81;entryDx=0;entryDy=0;entryPerimeter=0;" edge="1" parent="WIyWlLk6GJQsqaUBKTNV-1" source="IxoI0bGfIbi6MGj2JMH9-161" target="XxRSkG4TPEDueCD8kfSd-40">
          <mxGeometry relative="1" as="geometry" />
        </mxCell>
        <mxCell id="XxRSkG4TPEDueCD8kfSd-67" style="edgeStyle=orthogonalEdgeStyle;rounded=0;orthogonalLoop=1;jettySize=auto;html=1;exitX=1;exitY=0.5;exitDx=0;exitDy=0;entryX=0;entryY=0.5;entryDx=0;entryDy=0;" edge="1" parent="WIyWlLk6GJQsqaUBKTNV-1" source="XxRSkG4TPEDueCD8kfSd-46" target="XxRSkG4TPEDueCD8kfSd-47">
          <mxGeometry relative="1" as="geometry" />
        </mxCell>
        <mxCell id="XxRSkG4TPEDueCD8kfSd-77" value="&lt;b&gt;True&lt;/b&gt;" style="edgeLabel;html=1;align=center;verticalAlign=middle;resizable=0;points=[];" vertex="1" connectable="0" parent="XxRSkG4TPEDueCD8kfSd-67">
          <mxGeometry x="-0.3969" y="1" relative="1" as="geometry">
            <mxPoint x="7" y="1" as="offset" />
          </mxGeometry>
        </mxCell>
        <mxCell id="XxRSkG4TPEDueCD8kfSd-70" style="edgeStyle=orthogonalEdgeStyle;rounded=0;orthogonalLoop=1;jettySize=auto;html=1;exitX=0.5;exitY=1;exitDx=0;exitDy=0;entryX=0.5;entryY=0;entryDx=0;entryDy=0;" edge="1" parent="WIyWlLk6GJQsqaUBKTNV-1" source="XxRSkG4TPEDueCD8kfSd-46" target="XxRSkG4TPEDueCD8kfSd-69">
          <mxGeometry relative="1" as="geometry" />
        </mxCell>
        <mxCell id="XxRSkG4TPEDueCD8kfSd-75" value="&lt;b&gt;False&lt;/b&gt;" style="edgeLabel;html=1;align=center;verticalAlign=middle;resizable=0;points=[];" vertex="1" connectable="0" parent="XxRSkG4TPEDueCD8kfSd-70">
          <mxGeometry x="-0.2008" y="2" relative="1" as="geometry">
            <mxPoint x="-2" as="offset" />
          </mxGeometry>
        </mxCell>
        <mxCell id="XxRSkG4TPEDueCD8kfSd-46" value="&lt;span style=&quot;font-size: 8px;&quot;&gt;[3] Hapus Semua Room&lt;/span&gt;" style="rhombus;whiteSpace=wrap;html=1;" vertex="1" parent="WIyWlLk6GJQsqaUBKTNV-1">
          <mxGeometry x="525" y="1390" width="80" height="80" as="geometry" />
        </mxCell>
        <mxCell id="XxRSkG4TPEDueCD8kfSd-47" value="&lt;span style=&quot;font-size: 8px;&quot;&gt;clearall_room()&lt;/span&gt;" style="rounded=0;whiteSpace=wrap;html=1;" vertex="1" parent="WIyWlLk6GJQsqaUBKTNV-1">
          <mxGeometry x="663.5" y="1408.1299999999999" width="100" height="43.75" as="geometry" />
        </mxCell>
        <mxCell id="XxRSkG4TPEDueCD8kfSd-53" style="edgeStyle=orthogonalEdgeStyle;rounded=0;orthogonalLoop=1;jettySize=auto;html=1;exitX=0.5;exitY=1;exitDx=0;exitDy=0;entryX=0.5;entryY=0;entryDx=0;entryDy=0;" edge="1" parent="WIyWlLk6GJQsqaUBKTNV-1" source="XxRSkG4TPEDueCD8kfSd-51" target="XxRSkG4TPEDueCD8kfSd-24">
          <mxGeometry relative="1" as="geometry" />
        </mxCell>
        <mxCell id="XxRSkG4TPEDueCD8kfSd-51" value="&lt;span style=&quot;font-size: 8px;&quot;&gt;admin_menu()&lt;/span&gt;&lt;div&gt;&lt;span style=&quot;font-size: 8px;&quot;&gt;[0] Ganti Pass Akun&lt;br&gt;&lt;/span&gt;&lt;div&gt;&lt;span style=&quot;font-size: 8px;&quot;&gt;[1] Booking Room&lt;/span&gt;&lt;/div&gt;&lt;div&gt;&lt;span style=&quot;font-size: 8px;&quot;&gt;[2] Hapus Room&lt;/span&gt;&lt;/div&gt;&lt;div&gt;&lt;span style=&quot;font-size: 8px;&quot;&gt;[3] Hapus Semua Room&lt;/span&gt;&lt;/div&gt;&lt;div&gt;&lt;span style=&quot;font-size: 8px;&quot;&gt;[4] List Room&lt;/span&gt;&lt;/div&gt;&lt;div&gt;&lt;span style=&quot;font-size: 8px;&quot;&gt;[5] Room Kosong&lt;/span&gt;&lt;/div&gt;&lt;div&gt;&lt;span style=&quot;font-size: 8px;&quot;&gt;[6] Log Out&lt;/span&gt;&lt;/div&gt;&lt;div&gt;&lt;span style=&quot;font-size: 8px;&quot;&gt;[7] EXIT&lt;/span&gt;&lt;/div&gt;&lt;/div&gt;" style="rounded=0;whiteSpace=wrap;html=1;" vertex="1" parent="WIyWlLk6GJQsqaUBKTNV-1">
          <mxGeometry x="515" y="873.74" width="100" height="146.26" as="geometry" />
        </mxCell>
        <mxCell id="XxRSkG4TPEDueCD8kfSd-55" style="edgeStyle=orthogonalEdgeStyle;rounded=0;orthogonalLoop=1;jettySize=auto;html=1;entryX=0.075;entryY=0.421;entryDx=0;entryDy=0;entryPerimeter=0;" edge="1" parent="WIyWlLk6GJQsqaUBKTNV-1" source="IxoI0bGfIbi6MGj2JMH9-209" target="IxoI0bGfIbi6MGj2JMH9-38">
          <mxGeometry relative="1" as="geometry">
            <Array as="points">
              <mxPoint x="110" y="705" />
            </Array>
          </mxGeometry>
        </mxCell>
        <mxCell id="XxRSkG4TPEDueCD8kfSd-57" value="" style="edgeStyle=orthogonalEdgeStyle;rounded=0;orthogonalLoop=1;jettySize=auto;html=1;exitDx=0;exitDy=0;entryDx=0;entryDy=0;entryPerimeter=0;fillColor=#f8cecc;strokeColor=#b85450;" edge="1" parent="WIyWlLk6GJQsqaUBKTNV-1" source="IxoI0bGfIbi6MGj2JMH9-231">
          <mxGeometry relative="1" as="geometry">
            <mxPoint x="1001" y="1161.1200000000001" as="sourcePoint" />
            <mxPoint x="880" y="1161.1200000000001" as="targetPoint" />
          </mxGeometry>
        </mxCell>
        <mxCell id="XxRSkG4TPEDueCD8kfSd-62" value="" style="edgeStyle=orthogonalEdgeStyle;rounded=0;orthogonalLoop=1;jettySize=auto;html=1;entryDx=0;entryDy=0;entryPerimeter=0;fillColor=#f8cecc;strokeColor=#B85450;" edge="1" parent="WIyWlLk6GJQsqaUBKTNV-1" target="IxoI0bGfIbi6MGj2JMH9-231">
          <mxGeometry relative="1" as="geometry">
            <mxPoint x="960" y="1161.1200000000001" as="sourcePoint" />
            <mxPoint x="880" y="1161.1200000000001" as="targetPoint" />
          </mxGeometry>
        </mxCell>
        <mxCell id="XxRSkG4TPEDueCD8kfSd-63" value="&lt;b&gt;True&lt;/b&gt;" style="edgeLabel;html=1;align=center;verticalAlign=middle;resizable=0;points=[];" vertex="1" connectable="0" parent="XxRSkG4TPEDueCD8kfSd-62">
          <mxGeometry x="-0.6128" y="-2" relative="1" as="geometry">
            <mxPoint x="-4" y="1" as="offset" />
          </mxGeometry>
        </mxCell>
        <mxCell id="XxRSkG4TPEDueCD8kfSd-64" style="edgeStyle=orthogonalEdgeStyle;rounded=0;orthogonalLoop=1;jettySize=auto;html=1;entryX=1;entryY=0.5;entryDx=0;entryDy=0;strokeColor=#B85450;" edge="1" parent="WIyWlLk6GJQsqaUBKTNV-1" source="IxoI0bGfIbi6MGj2JMH9-231" target="IxoI0bGfIbi6MGj2JMH9-38">
          <mxGeometry relative="1" as="geometry">
            <Array as="points">
              <mxPoint x="880" y="710" />
            </Array>
          </mxGeometry>
        </mxCell>
        <mxCell id="IxoI0bGfIbi6MGj2JMH9-231" value="" style="shape=waypoint;sketch=0;size=6;pointerEvents=1;points=[];fillColor=#f8cecc;resizable=0;rotatable=0;perimeter=centerPerimeter;snapToPoint=1;strokeColor=#b85450;" parent="WIyWlLk6GJQsqaUBKTNV-1" vertex="1">
          <mxGeometry x="870" y="1151.1200000000001" width="20" height="20" as="geometry" />
        </mxCell>
        <mxCell id="XxRSkG4TPEDueCD8kfSd-78" style="edgeStyle=orthogonalEdgeStyle;rounded=0;orthogonalLoop=1;jettySize=auto;html=1;exitX=1;exitY=0.5;exitDx=0;exitDy=0;entryX=0;entryY=0.5;entryDx=0;entryDy=0;" edge="1" parent="WIyWlLk6GJQsqaUBKTNV-1" source="XxRSkG4TPEDueCD8kfSd-69" target="IxoI0bGfIbi6MGj2JMH9-78">
          <mxGeometry relative="1" as="geometry" />
        </mxCell>
        <mxCell id="XxRSkG4TPEDueCD8kfSd-79" value="&lt;b&gt;True&lt;/b&gt;" style="edgeLabel;html=1;align=center;verticalAlign=middle;resizable=0;points=[];" vertex="1" connectable="0" parent="XxRSkG4TPEDueCD8kfSd-78">
          <mxGeometry x="0.059" relative="1" as="geometry">
            <mxPoint x="-6" as="offset" />
          </mxGeometry>
        </mxCell>
        <mxCell id="XxRSkG4TPEDueCD8kfSd-96" style="edgeStyle=orthogonalEdgeStyle;rounded=0;orthogonalLoop=1;jettySize=auto;html=1;exitX=0.5;exitY=1;exitDx=0;exitDy=0;entryX=0.5;entryY=0;entryDx=0;entryDy=0;" edge="1" parent="WIyWlLk6GJQsqaUBKTNV-1" source="XxRSkG4TPEDueCD8kfSd-69" target="XxRSkG4TPEDueCD8kfSd-90">
          <mxGeometry relative="1" as="geometry" />
        </mxCell>
        <mxCell id="XxRSkG4TPEDueCD8kfSd-99" value="&lt;b&gt;False&lt;/b&gt;" style="edgeLabel;html=1;align=center;verticalAlign=middle;resizable=0;points=[];" vertex="1" connectable="0" parent="XxRSkG4TPEDueCD8kfSd-96">
          <mxGeometry x="-0.2582" y="2" relative="1" as="geometry">
            <mxPoint x="-2" as="offset" />
          </mxGeometry>
        </mxCell>
        <mxCell id="XxRSkG4TPEDueCD8kfSd-69" value="&lt;span style=&quot;font-size: 8px;&quot;&gt;[4] List Room&lt;/span&gt;" style="rhombus;whiteSpace=wrap;html=1;" vertex="1" parent="WIyWlLk6GJQsqaUBKTNV-1">
          <mxGeometry x="525" y="1500" width="80" height="80" as="geometry" />
        </mxCell>
        <mxCell id="XxRSkG4TPEDueCD8kfSd-82" value="" style="shape=waypoint;sketch=0;size=6;pointerEvents=1;points=[];fillColor=none;resizable=0;rotatable=0;perimeter=centerPerimeter;snapToPoint=1;" vertex="1" parent="WIyWlLk6GJQsqaUBKTNV-1">
          <mxGeometry x="803.5" y="1420" width="20" height="20" as="geometry" />
        </mxCell>
        <mxCell id="XxRSkG4TPEDueCD8kfSd-83" value="" style="shape=waypoint;sketch=0;size=6;pointerEvents=1;points=[];fillColor=none;resizable=0;rotatable=0;perimeter=centerPerimeter;snapToPoint=1;" vertex="1" parent="WIyWlLk6GJQsqaUBKTNV-1">
          <mxGeometry x="803.5" y="1529.99" width="20" height="20" as="geometry" />
        </mxCell>
        <mxCell id="XxRSkG4TPEDueCD8kfSd-84" style="edgeStyle=orthogonalEdgeStyle;rounded=0;orthogonalLoop=1;jettySize=auto;html=1;exitX=1;exitY=0.5;exitDx=0;exitDy=0;entryX=0.106;entryY=0.602;entryDx=0;entryDy=0;entryPerimeter=0;" edge="1" parent="WIyWlLk6GJQsqaUBKTNV-1" source="IxoI0bGfIbi6MGj2JMH9-78" target="XxRSkG4TPEDueCD8kfSd-83">
          <mxGeometry relative="1" as="geometry" />
        </mxCell>
        <mxCell id="XxRSkG4TPEDueCD8kfSd-85" style="edgeStyle=orthogonalEdgeStyle;rounded=0;orthogonalLoop=1;jettySize=auto;html=1;entryX=0.497;entryY=0.745;entryDx=0;entryDy=0;entryPerimeter=0;" edge="1" parent="WIyWlLk6GJQsqaUBKTNV-1" source="XxRSkG4TPEDueCD8kfSd-83" target="XxRSkG4TPEDueCD8kfSd-82">
          <mxGeometry relative="1" as="geometry" />
        </mxCell>
        <mxCell id="XxRSkG4TPEDueCD8kfSd-86" style="edgeStyle=orthogonalEdgeStyle;rounded=0;orthogonalLoop=1;jettySize=auto;html=1;exitX=1;exitY=0.5;exitDx=0;exitDy=0;entryX=0.129;entryY=0.607;entryDx=0;entryDy=0;entryPerimeter=0;" edge="1" parent="WIyWlLk6GJQsqaUBKTNV-1" source="XxRSkG4TPEDueCD8kfSd-47" target="XxRSkG4TPEDueCD8kfSd-82">
          <mxGeometry relative="1" as="geometry" />
        </mxCell>
        <mxCell id="XxRSkG4TPEDueCD8kfSd-87" style="edgeStyle=orthogonalEdgeStyle;rounded=0;orthogonalLoop=1;jettySize=auto;html=1;entryX=0.658;entryY=0.882;entryDx=0;entryDy=0;entryPerimeter=0;" edge="1" parent="WIyWlLk6GJQsqaUBKTNV-1" source="XxRSkG4TPEDueCD8kfSd-82" target="IxoI0bGfIbi6MGj2JMH9-165">
          <mxGeometry relative="1" as="geometry" />
        </mxCell>
        <mxCell id="XxRSkG4TPEDueCD8kfSd-92" style="edgeStyle=orthogonalEdgeStyle;rounded=0;orthogonalLoop=1;jettySize=auto;html=1;exitX=1;exitY=0.5;exitDx=0;exitDy=0;entryX=0;entryY=0.5;entryDx=0;entryDy=0;" edge="1" parent="WIyWlLk6GJQsqaUBKTNV-1" source="XxRSkG4TPEDueCD8kfSd-90" target="XxRSkG4TPEDueCD8kfSd-91">
          <mxGeometry relative="1" as="geometry" />
        </mxCell>
        <mxCell id="XxRSkG4TPEDueCD8kfSd-98" value="&lt;b&gt;True&lt;/b&gt;" style="edgeLabel;html=1;align=center;verticalAlign=middle;resizable=0;points=[];" vertex="1" connectable="0" parent="XxRSkG4TPEDueCD8kfSd-92">
          <mxGeometry x="-0.086" y="2" relative="1" as="geometry">
            <mxPoint y="2" as="offset" />
          </mxGeometry>
        </mxCell>
        <mxCell id="XxRSkG4TPEDueCD8kfSd-97" style="edgeStyle=orthogonalEdgeStyle;rounded=0;orthogonalLoop=1;jettySize=auto;html=1;exitX=0.5;exitY=1;exitDx=0;exitDy=0;entryX=0.5;entryY=0;entryDx=0;entryDy=0;" edge="1" parent="WIyWlLk6GJQsqaUBKTNV-1" source="XxRSkG4TPEDueCD8kfSd-90" target="IxoI0bGfIbi6MGj2JMH9-84">
          <mxGeometry relative="1" as="geometry" />
        </mxCell>
        <mxCell id="XxRSkG4TPEDueCD8kfSd-100" value="&lt;b&gt;False&lt;/b&gt;" style="edgeLabel;html=1;align=center;verticalAlign=middle;resizable=0;points=[];" vertex="1" connectable="0" parent="XxRSkG4TPEDueCD8kfSd-97">
          <mxGeometry x="-0.3272" y="-1" relative="1" as="geometry">
            <mxPoint x="1" as="offset" />
          </mxGeometry>
        </mxCell>
        <mxCell id="XxRSkG4TPEDueCD8kfSd-90" value="&lt;span style=&quot;font-size: 8px;&quot;&gt;[5] Room Kosong&lt;/span&gt;" style="rhombus;whiteSpace=wrap;html=1;" vertex="1" parent="WIyWlLk6GJQsqaUBKTNV-1">
          <mxGeometry x="525" y="1610" width="80" height="80" as="geometry" />
        </mxCell>
        <mxCell id="XxRSkG4TPEDueCD8kfSd-91" value="&lt;span style=&quot;font-size: 8px;&quot;&gt;room_kosong()&lt;/span&gt;" style="rounded=0;whiteSpace=wrap;html=1;" vertex="1" parent="WIyWlLk6GJQsqaUBKTNV-1">
          <mxGeometry x="663.5" y="1628.12" width="100" height="43.75" as="geometry" />
        </mxCell>
        <mxCell id="XxRSkG4TPEDueCD8kfSd-93" value="" style="shape=waypoint;sketch=0;size=6;pointerEvents=1;points=[];fillColor=none;resizable=0;rotatable=0;perimeter=centerPerimeter;snapToPoint=1;" vertex="1" parent="WIyWlLk6GJQsqaUBKTNV-1">
          <mxGeometry x="803.5" y="1640" width="20" height="20" as="geometry" />
        </mxCell>
        <mxCell id="XxRSkG4TPEDueCD8kfSd-94" style="edgeStyle=orthogonalEdgeStyle;rounded=0;orthogonalLoop=1;jettySize=auto;html=1;exitX=1;exitY=0.5;exitDx=0;exitDy=0;entryX=0.162;entryY=0.754;entryDx=0;entryDy=0;entryPerimeter=0;" edge="1" parent="WIyWlLk6GJQsqaUBKTNV-1" source="XxRSkG4TPEDueCD8kfSd-91" target="XxRSkG4TPEDueCD8kfSd-93">
          <mxGeometry relative="1" as="geometry" />
        </mxCell>
        <mxCell id="XxRSkG4TPEDueCD8kfSd-95" style="edgeStyle=orthogonalEdgeStyle;rounded=0;orthogonalLoop=1;jettySize=auto;html=1;entryX=0.594;entryY=1.078;entryDx=0;entryDy=0;entryPerimeter=0;" edge="1" parent="WIyWlLk6GJQsqaUBKTNV-1" source="XxRSkG4TPEDueCD8kfSd-93" target="XxRSkG4TPEDueCD8kfSd-83">
          <mxGeometry relative="1" as="geometry" />
        </mxCell>
        <mxCell id="XxRSkG4TPEDueCD8kfSd-117" style="edgeStyle=orthogonalEdgeStyle;rounded=0;orthogonalLoop=1;jettySize=auto;html=1;exitX=1;exitY=0.5;exitDx=0;exitDy=0;" edge="1" parent="WIyWlLk6GJQsqaUBKTNV-1" source="XxRSkG4TPEDueCD8kfSd-106" target="XxRSkG4TPEDueCD8kfSd-109">
          <mxGeometry relative="1" as="geometry" />
        </mxCell>
        <mxCell id="XxRSkG4TPEDueCD8kfSd-106" value="&lt;span style=&quot;font-size: 8px;&quot;&gt;room_kosong()&lt;/span&gt;" style="rounded=0;whiteSpace=wrap;html=1;" vertex="1" parent="WIyWlLk6GJQsqaUBKTNV-1">
          <mxGeometry x="1098.5" y="1018.1200000000001" width="100" height="43.75" as="geometry" />
        </mxCell>
        <mxCell id="XxRSkG4TPEDueCD8kfSd-120" style="edgeStyle=orthogonalEdgeStyle;rounded=0;orthogonalLoop=1;jettySize=auto;html=1;entryX=1;entryY=0.5;entryDx=0;entryDy=0;" edge="1" parent="WIyWlLk6GJQsqaUBKTNV-1" source="XxRSkG4TPEDueCD8kfSd-108" target="IxoI0bGfIbi6MGj2JMH9-176">
          <mxGeometry relative="1" as="geometry">
            <Array as="points">
              <mxPoint x="1240" y="799" />
            </Array>
          </mxGeometry>
        </mxCell>
        <mxCell id="XxRSkG4TPEDueCD8kfSd-108" value="" style="shape=waypoint;sketch=0;size=6;pointerEvents=1;points=[];fillColor=none;resizable=0;rotatable=0;perimeter=centerPerimeter;snapToPoint=1;" vertex="1" parent="WIyWlLk6GJQsqaUBKTNV-1">
          <mxGeometry x="1230" y="908.89" width="20" height="20" as="geometry" />
        </mxCell>
        <mxCell id="XxRSkG4TPEDueCD8kfSd-109" value="" style="shape=waypoint;sketch=0;size=6;pointerEvents=1;points=[];fillColor=none;resizable=0;rotatable=0;perimeter=centerPerimeter;snapToPoint=1;" vertex="1" parent="WIyWlLk6GJQsqaUBKTNV-1">
          <mxGeometry x="1230" y="1029.99" width="20" height="20" as="geometry" />
        </mxCell>
        <mxCell id="XxRSkG4TPEDueCD8kfSd-113" style="edgeStyle=orthogonalEdgeStyle;rounded=0;orthogonalLoop=1;jettySize=auto;html=1;exitX=1;exitY=0.5;exitDx=0;exitDy=0;entryX=0.5;entryY=0;entryDx=0;entryDy=0;" edge="1" parent="WIyWlLk6GJQsqaUBKTNV-1" source="XxRSkG4TPEDueCD8kfSd-111" target="IxoI0bGfIbi6MGj2JMH9-186">
          <mxGeometry relative="1" as="geometry" />
        </mxCell>
        <mxCell id="XxRSkG4TPEDueCD8kfSd-124" value="&lt;b&gt;False&lt;/b&gt;" style="edgeLabel;html=1;align=center;verticalAlign=middle;resizable=0;points=[];" vertex="1" connectable="0" parent="XxRSkG4TPEDueCD8kfSd-113">
          <mxGeometry x="-0.0595" relative="1" as="geometry">
            <mxPoint y="1" as="offset" />
          </mxGeometry>
        </mxCell>
        <mxCell id="XxRSkG4TPEDueCD8kfSd-114" style="edgeStyle=orthogonalEdgeStyle;rounded=0;orthogonalLoop=1;jettySize=auto;html=1;exitX=0.5;exitY=0;exitDx=0;exitDy=0;entryX=0;entryY=0.5;entryDx=0;entryDy=0;" edge="1" parent="WIyWlLk6GJQsqaUBKTNV-1" source="XxRSkG4TPEDueCD8kfSd-111" target="XxRSkG4TPEDueCD8kfSd-106">
          <mxGeometry relative="1" as="geometry" />
        </mxCell>
        <mxCell id="XxRSkG4TPEDueCD8kfSd-121" value="&lt;b&gt;True&lt;/b&gt;" style="edgeLabel;html=1;align=center;verticalAlign=middle;resizable=0;points=[];" vertex="1" connectable="0" parent="XxRSkG4TPEDueCD8kfSd-114">
          <mxGeometry x="-0.0239" relative="1" as="geometry">
            <mxPoint as="offset" />
          </mxGeometry>
        </mxCell>
        <mxCell id="XxRSkG4TPEDueCD8kfSd-111" value="&lt;span style=&quot;font-size: 8px;&quot;&gt;[5]&amp;nbsp;&lt;/span&gt;&lt;span style=&quot;font-size: 8px; background-color: initial;&quot;&gt;Room Kosong&lt;/span&gt;" style="rhombus;whiteSpace=wrap;html=1;direction=south;" vertex="1" parent="WIyWlLk6GJQsqaUBKTNV-1">
          <mxGeometry x="960" y="999.99" width="80" height="80" as="geometry" />
        </mxCell>
        <mxCell id="XxRSkG4TPEDueCD8kfSd-118" style="edgeStyle=orthogonalEdgeStyle;rounded=0;orthogonalLoop=1;jettySize=auto;html=1;entryX=0.473;entryY=0.906;entryDx=0;entryDy=0;entryPerimeter=0;" edge="1" parent="WIyWlLk6GJQsqaUBKTNV-1" source="XxRSkG4TPEDueCD8kfSd-109" target="XxRSkG4TPEDueCD8kfSd-108">
          <mxGeometry relative="1" as="geometry" />
        </mxCell>
        <mxCell id="XxRSkG4TPEDueCD8kfSd-119" style="edgeStyle=orthogonalEdgeStyle;rounded=0;orthogonalLoop=1;jettySize=auto;html=1;exitX=1;exitY=0.5;exitDx=0;exitDy=0;entryX=-0.051;entryY=0.509;entryDx=0;entryDy=0;entryPerimeter=0;" edge="1" parent="WIyWlLk6GJQsqaUBKTNV-1" source="IxoI0bGfIbi6MGj2JMH9-183" target="XxRSkG4TPEDueCD8kfSd-108">
          <mxGeometry relative="1" as="geometry" />
        </mxCell>
        <mxCell id="XxRSkG4TPEDueCD8kfSd-128" value="" style="shape=waypoint;sketch=0;size=6;pointerEvents=1;points=[];fillColor=none;resizable=0;rotatable=0;perimeter=centerPerimeter;snapToPoint=1;" vertex="1" parent="WIyWlLk6GJQsqaUBKTNV-1">
          <mxGeometry x="555" y="2030" width="20" height="20" as="geometry" />
        </mxCell>
        <mxCell id="XxRSkG4TPEDueCD8kfSd-129" style="edgeStyle=orthogonalEdgeStyle;rounded=0;orthogonalLoop=1;jettySize=auto;html=1;exitX=0.5;exitY=1;exitDx=0;exitDy=0;entryX=0.452;entryY=-0.001;entryDx=0;entryDy=0;entryPerimeter=0;" edge="1" parent="WIyWlLk6GJQsqaUBKTNV-1" source="IxoI0bGfIbi6MGj2JMH9-91" target="XxRSkG4TPEDueCD8kfSd-128">
          <mxGeometry relative="1" as="geometry" />
        </mxCell>
        <mxCell id="XxRSkG4TPEDueCD8kfSd-130" style="edgeStyle=orthogonalEdgeStyle;rounded=0;orthogonalLoop=1;jettySize=auto;html=1;exitX=0.5;exitY=1;exitDx=0;exitDy=0;entryX=0.962;entryY=1.058;entryDx=0;entryDy=0;entryPerimeter=0;" edge="1" parent="WIyWlLk6GJQsqaUBKTNV-1" source="IxoI0bGfIbi6MGj2JMH9-211" target="XxRSkG4TPEDueCD8kfSd-128">
          <mxGeometry relative="1" as="geometry">
            <Array as="points">
              <mxPoint x="1000" y="2040" />
            </Array>
          </mxGeometry>
        </mxCell>
        <mxCell id="XxRSkG4TPEDueCD8kfSd-133" style="edgeStyle=orthogonalEdgeStyle;rounded=0;orthogonalLoop=1;jettySize=auto;html=1;entryX=0.5;entryY=0;entryDx=0;entryDy=0;" edge="1" parent="WIyWlLk6GJQsqaUBKTNV-1" source="XxRSkG4TPEDueCD8kfSd-131" target="WIyWlLk6GJQsqaUBKTNV-11">
          <mxGeometry relative="1" as="geometry" />
        </mxCell>
        <mxCell id="XxRSkG4TPEDueCD8kfSd-131" value="" style="shape=waypoint;sketch=0;size=6;pointerEvents=1;points=[];fillColor=none;resizable=0;rotatable=0;perimeter=centerPerimeter;snapToPoint=1;" vertex="1" parent="WIyWlLk6GJQsqaUBKTNV-1">
          <mxGeometry x="350" y="2030" width="20" height="20" as="geometry" />
        </mxCell>
        <mxCell id="XxRSkG4TPEDueCD8kfSd-132" style="edgeStyle=orthogonalEdgeStyle;rounded=0;orthogonalLoop=1;jettySize=auto;html=1;entryX=1.055;entryY=0.587;entryDx=0;entryDy=0;entryPerimeter=0;" edge="1" parent="WIyWlLk6GJQsqaUBKTNV-1" source="XxRSkG4TPEDueCD8kfSd-128" target="XxRSkG4TPEDueCD8kfSd-131">
          <mxGeometry relative="1" as="geometry" />
        </mxCell>
      </root>
    </mxGraphModel>
  </diagram>
</mxfile>
